<svg width="301" height="301" viewBox="0 0 301 301" fill="none" xmlns="http://www.w3.org/2000/svg">
<path d="M3.74554 68.9808C8.24728 64.4819 15.5308 64.4877 20.0239 68.9808C22.7186 71.6727 26.0068 73.5804 30.2834 74.9997L74.9173 30.3656C73.4951 26.0883 71.5594 22.8512 68.856 20.1486C64.3629 15.6555 64.3571 8.37194 68.856 3.87307C73.3549 -0.625797 80.6384 -0.622919 85.1343 3.87307C97.0879 15.8267 100.572 30.6383 101.241 58.1372C101.314 61.2369 100.137 64.2352 97.9698 66.4544C95.806 68.6744 92.8358 69.9332 89.7332 69.9332H88.6678C82.9439 69.9332 78.2904 65.3135 78.2458 59.5896L59.5087 78.3267C65.0305 78.431 71.086 78.4584 78.2825 78.3943L101.338 78.0793C129.84 77.6297 172.271 74.9098 199.145 101.782C216.84 119.48 222.024 145.852 223.101 173.173C223.221 176.272 222.075 179.287 219.928 181.525C217.779 183.759 214.811 185.031 211.709 185.031H211.458C205.308 185.031 200.278 180.156 200.073 174.008C199.896 168.722 199.553 163.566 198.988 158.589C189.474 168.103 170.129 187.451 158.437 199.143C172.38 200.632 186.995 200.095 199.775 199.904L222.8 199.583C268.558 199.119 282.127 200.867 297.001 215.741C301.497 220.237 301.503 227.52 297.001 232.019C292.505 236.518 285.219 236.515 280.725 232.019C277.766 229.06 274.737 226.989 270.393 225.542L225.79 270.142C227.246 274.45 229.176 278.134 231.893 280.851C236.389 285.344 236.392 292.63 231.893 297.129C227.394 301.625 220.111 301.622 215.618 297.129C203.321 284.832 199.839 265.067 199.229 242.787C199.145 239.709 200.308 236.731 202.453 234.525C204.597 232.32 207.544 231.069 210.621 231.069H211.92C217.54 231.069 222.111 235.59 222.17 241.21L240.8 222.58C235.512 222.521 229.499 222.539 222.485 222.611L199.454 222.926C170.831 223.362 128.457 226.071 101.655 199.27C82.8676 180.482 78.2875 148.043 77.7422 121.503C77.6077 115.042 82.7777 109.709 89.2404 109.709C95.4672 109.709 100.607 114.672 100.694 120.898C100.765 125.709 101.003 136.457 101.605 142.032C113.578 130.062 127.661 115.976 141.821 101.816C127.997 100.383 113.572 100.908 101.003 101.105L77.9645 101.426C37.7115 101.797 18.4801 99.9931 3.74411 85.2599C-0.746826 80.7625 -0.749695 73.479 3.74554 68.9808ZM108.075 168.12C110.669 173.973 113.901 178.961 117.938 182.996C122.103 187.161 127.085 190.168 132.444 192.584L192.496 132.529C190.062 127.075 186.969 122.16 182.871 118.063C178.591 113.782 173.466 110.695 167.945 108.25C147.932 128.26 124.868 151.328 108.075 168.12Z" fill="#187EDC"/>
</svg>
