<svg width="30" height="30" viewBox="0 0 30 30" fill="none" xmlns="http://www.w3.org/2000/svg">
<path d="M0.5 0.5H24C25.933 0.5 27.5 2.067 27.5 4V27.5H4C2.067 27.5 0.5 25.933 0.5 24V0.5Z" fill="white" stroke="#187EDC"/>
<path d="M2 6C2 3.79086 3.79086 2 6 2H30V26C30 28.2091 28.2091 30 26 30H2V6Z" fill="black"/>
<path d="M0.5 0.5H24C25.933 0.5 27.5 2.067 27.5 4V27.5H4C2.067 27.5 0.5 25.933 0.5 24V0.5Z" stroke="white"/>
<path d="M21.5049 26.2148C20.6956 26.2148 19.9616 26.0788 19.3027 25.8066C18.651 25.5273 18.0889 25.137 17.6162 24.6357C17.1507 24.1344 16.7926 23.54 16.542 22.8525C16.2913 22.165 16.166 21.4131 16.166 20.5967V20.1455C16.166 19.2002 16.3057 18.3587 16.585 17.6211C16.8643 16.8763 17.2438 16.2461 17.7236 15.7305C18.2035 15.2148 18.7477 14.8245 19.3564 14.5596C19.9652 14.2946 20.5954 14.1621 21.2471 14.1621C22.0778 14.1621 22.7939 14.3053 23.3955 14.5918C24.0042 14.8783 24.502 15.2793 24.8887 15.7949C25.2754 16.3034 25.5618 16.9049 25.748 17.5996C25.9342 18.2871 26.0273 19.0391 26.0273 19.8555V20.7471H17.3477V19.125H24.04V18.9746C24.0114 18.459 23.904 17.9577 23.7178 17.4707C23.5387 16.9837 23.2523 16.5827 22.8584 16.2676C22.4645 15.9525 21.9274 15.7949 21.2471 15.7949C20.7959 15.7949 20.3805 15.8916 20.001 16.085C19.6214 16.2712 19.2956 16.5505 19.0234 16.9229C18.7513 17.2952 18.54 17.75 18.3896 18.2871C18.2393 18.8242 18.1641 19.4437 18.1641 20.1455V20.5967C18.1641 21.1481 18.2393 21.6673 18.3896 22.1543C18.5472 22.6341 18.7728 23.0566 19.0664 23.4219C19.3672 23.7871 19.7288 24.0736 20.1514 24.2812C20.5811 24.4889 21.068 24.5928 21.6123 24.5928C22.3141 24.5928 22.9085 24.4495 23.3955 24.1631C23.8825 23.8766 24.3086 23.4935 24.6738 23.0137L25.877 23.9697C25.6263 24.3493 25.3076 24.7109 24.9209 25.0547C24.5342 25.3984 24.0579 25.6777 23.4922 25.8926C22.9336 26.1074 22.2712 26.2148 21.5049 26.2148Z" fill="white"/>
</svg>
