<svg width="337" height="145" viewBox="0 0 337 145" fill="none" xmlns="http://www.w3.org/2000/svg">
<path d="M0.5 5.5H116C117.933 5.5 119.5 7.067 119.5 9V124.5H4C2.06701 124.5 0.5 122.933 0.5 121V5.5Z" fill="white" stroke="#187EDC"/>
<path d="M13 17C13 14.7909 14.7909 13 17 13H133V129C133 131.209 131.209 133 129 133H13V17Z" fill="black"/>
<path d="M0.5 5.5H116C117.933 5.5 119.5 7.067 119.5 9V124.5H4C2.06701 124.5 0.5 122.933 0.5 121V5.5Z" stroke="white"/>
<path d="M88.9375 120.25C84.2292 120.25 79.9583 119.458 76.125 117.875C72.3333 116.25 69.0625 113.979 66.3125 111.062C63.6042 108.146 61.5208 104.688 60.0625 100.688C58.6042 96.6875 57.875 92.3125 57.875 87.5625V84.9375C57.875 79.4375 58.6875 74.5417 60.3125 70.25C61.9375 65.9167 64.1458 62.25 66.9375 59.25C69.7292 56.25 72.8958 53.9792 76.4375 52.4375C79.9792 50.8958 83.6458 50.125 87.4375 50.125C92.2708 50.125 96.4375 50.9583 99.9375 52.625C103.479 54.2917 106.375 56.625 108.625 59.625C110.875 62.5833 112.542 66.0833 113.625 70.125C114.708 74.125 115.25 78.5 115.25 83.25V88.4375H64.75V79H103.688V78.125C103.521 75.125 102.896 72.2083 101.812 69.375C100.771 66.5417 99.1042 64.2083 96.8125 62.375C94.5208 60.5417 91.3958 59.625 87.4375 59.625C84.8125 59.625 82.3958 60.1875 80.1875 61.3125C77.9792 62.3958 76.0833 64.0208 74.5 66.1875C72.9167 68.3542 71.6875 71 70.8125 74.125C69.9375 77.25 69.5 80.8542 69.5 84.9375V87.5625C69.5 90.7708 69.9375 93.7917 70.8125 96.625C71.7292 99.4167 73.0417 101.875 74.75 104C76.5 106.125 78.6042 107.792 81.0625 109C83.5625 110.208 86.3958 110.812 89.5625 110.812C93.6458 110.812 97.1042 109.979 99.9375 108.312C102.771 106.646 105.25 104.417 107.375 101.625L114.375 107.188C112.917 109.396 111.062 111.5 108.812 113.5C106.562 115.5 103.792 117.125 100.5 118.375C97.25 119.625 93.3958 120.25 88.9375 120.25ZM136.562 51.375L151.375 76L166.375 51.375H179.938L157.812 84.75L180.625 119H167.25L151.625 93.625L136 119H122.562L145.312 84.75L123.25 51.375H136.562ZM187.938 85.9375V84.5C187.938 79.625 188.646 75.1042 190.062 70.9375C191.479 66.7292 193.521 63.0833 196.188 60C198.854 56.875 202.083 54.4583 205.875 52.75C209.667 51 213.917 50.125 218.625 50.125C223.375 50.125 227.646 51 231.438 52.75C235.271 54.4583 238.521 56.875 241.188 60C243.896 63.0833 245.958 66.7292 247.375 70.9375C248.792 75.1042 249.5 79.625 249.5 84.5V85.9375C249.5 90.8125 248.792 95.3333 247.375 99.5C245.958 103.667 243.896 107.312 241.188 110.438C238.521 113.521 235.292 115.938 231.5 117.688C227.75 119.396 223.5 120.25 218.75 120.25C214 120.25 209.729 119.396 205.938 117.688C202.146 115.938 198.896 113.521 196.188 110.438C193.521 107.312 191.479 103.667 190.062 99.5C188.646 95.3333 187.938 90.8125 187.938 85.9375ZM199.5 84.5V85.9375C199.5 89.3125 199.896 92.5 200.688 95.5C201.479 98.4583 202.667 101.083 204.25 103.375C205.875 105.667 207.896 107.479 210.312 108.812C212.729 110.104 215.542 110.75 218.75 110.75C221.917 110.75 224.688 110.104 227.062 108.812C229.479 107.479 231.479 105.667 233.062 103.375C234.646 101.083 235.833 98.4583 236.625 95.5C237.458 92.5 237.875 89.3125 237.875 85.9375V84.5C237.875 81.1667 237.458 78.0208 236.625 75.0625C235.833 72.0625 234.625 69.4167 233 67.125C231.417 64.7917 229.417 62.9583 227 61.625C224.625 60.2917 221.833 59.625 218.625 59.625C215.458 59.625 212.667 60.2917 210.25 61.625C207.875 62.9583 205.875 64.7917 204.25 67.125C202.667 69.4167 201.479 72.0625 200.688 75.0625C199.896 78.0208 199.5 81.1667 199.5 84.5ZM275.562 65.8125V119H264V51.375H274.938L275.562 65.8125ZM272.812 82.625L268 82.4375C268.042 77.8125 268.729 73.5417 270.062 69.625C271.396 65.6667 273.271 62.2292 275.688 59.3125C278.104 56.3958 280.979 54.1458 284.312 52.5625C287.688 50.9375 291.417 50.125 295.5 50.125C298.833 50.125 301.833 50.5833 304.5 51.5C307.167 52.375 309.438 53.7917 311.312 55.75C313.229 57.7083 314.688 60.25 315.688 63.375C316.688 66.4583 317.188 70.2292 317.188 74.6875V119H305.562V74.5625C305.562 71.0208 305.042 68.1875 304 66.0625C302.958 63.8958 301.438 62.3333 299.438 61.375C297.438 60.375 294.979 59.875 292.062 59.875C289.188 59.875 286.562 60.4792 284.188 61.6875C281.854 62.8958 279.833 64.5625 278.125 66.6875C276.458 68.8125 275.146 71.25 274.188 74C273.271 76.7083 272.812 79.5833 272.812 82.625Z" fill="white"/>
<path d="M255.188 131.5H325.875V137.75H255.188V131.5Z" fill="white"/>
</svg>